<?xml version="1.0" encoding="UTF-8" standalone="no"?>
<!-- Generator: Adobe Illustrator 20.1.0, SVG Export Plug-In . SVG Version: 6.00 Build 0)  -->

<svg
   version="1.1"
   id="Layer_1"
   x="0px"
   y="0px"
   width="64px"
   height="64px"
   viewBox="0 0 64 64"
   style="enable-background:new 0 0 64 64;"
   xml:space="preserve"
   sodipodi:docname="icon_import_template_dark.svg"
   inkscape:version="1.2.1 (8a69933317, 2022-10-28, custom)"
   xmlns:inkscape="http://www.inkscape.org/namespaces/inkscape"
   xmlns:sodipodi="http://sodipodi.sourceforge.net/DTD/sodipodi-0.dtd"
   xmlns="http://www.w3.org/2000/svg"
   xmlns:svg="http://www.w3.org/2000/svg"><defs
   id="defs36">
	

		
	<linearGradient
   id="SVGID_1_"
   gradientUnits="userSpaceOnUse"
   x1="30"
   y1="77.070198"
   x2="30"
   y2="17.5"
   gradientTransform="translate(2)">
	<stop
   offset="0"
   style="stop-color:#FFF23A"
   id="stop164" />
	<stop
   offset="4.010540e-02"
   style="stop-color:#FEE62D"
   id="stop166" />
	<stop
   offset="0.1171"
   style="stop-color:#FED41A"
   id="stop168" />
	<stop
   offset="0.1964"
   style="stop-color:#FDC90F"
   id="stop170" />
	<stop
   offset="0.2809"
   style="stop-color:#FDC60B"
   id="stop172" />
	<stop
   offset="0.6685"
   style="stop-color:#F28F3F"
   id="stop174" />
	<stop
   offset="0.8876"
   style="stop-color:#ED693C"
   id="stop176" />
	<stop
   offset="1"
   style="stop-color:#E83E39"
   id="stop178" />
</linearGradient></defs><sodipodi:namedview
   id="namedview34"
   pagecolor="#ffffff"
   bordercolor="#666666"
   borderopacity="1.0"
   inkscape:showpageshadow="2"
   inkscape:pageopacity="0.0"
   inkscape:pagecheckerboard="0"
   inkscape:deskcolor="#d1d1d1"
   showgrid="false"
   inkscape:zoom="7.0710678"
   inkscape:cx="31.041988"
   inkscape:cy="56.214989"
   inkscape:window-width="1243"
   inkscape:window-height="1376"
   inkscape:window-x="3237"
   inkscape:window-y="27"
   inkscape:window-maximized="0"
   inkscape:current-layer="Layer_1" />
<style
   type="text/css"
   id="style25">
	.st0{fill:#52545c;}
</style>

<path
   id="path27"
   style="fill:#e6e6e6;fill-opacity:1;stroke-width:1"
   class="st0"
   d="M 13.53125,4 C 8.4156103,4 4.2539063,8.1628908 4.2539062,13.365234 v 1.449219 0.943359 25.214844 0.472656 0.648438 0.404297 c 0,5.115638 4.1628902,9.363281 9.3652348,9.363281 h 0.21289 C 12.036696,49.84732 11.68498,46.52791 13.806641,44.40625 l 0.002,-0.002 H 13.53125 c -1.04047,0 -1.908203,-0.865784 -1.908203,-1.90625 v -0.404297 -0.648438 -25.6875 -0.943359 -1.449219 c 0,-1.040468 0.867733,-1.908203 1.908203,-1.908203 h 4.339844 27.623047 1.138671 0.279297 3.46875 c 1.04047,0 1.908203,0.867735 1.908203,1.908203 v 2.392578 12.625 l 0.07031,12.265626 0.0078,1.341796 h 0.0059 l 0.002,0.507813 c 0,1.040466 -0.86578,1.90625 -1.90625,1.90625 h -0.277344 l 0.002,0.002 c 1.545149,1.545148 1.886969,4.098376 1.128907,5.867188 -0.236619,0.552111 -0.576881,1.054928 -0.982422,1.501953 h 0.04102 c 5.115639,6e-5 9.365235,-4.160938 9.365235,-9.363282 V 41.445312 40.980469 17.431641 14.451172 13.277344 C 59.746094,8.1617037 55.584389,4 50.46875,4 h -3.835938 -1.138671 -18.716797 -8.90625 z m 11.849609,40.404297 -1.048828,1.048828 c 2.917269,0.123914 5.160157,2.392783 5.160157,5.347656 v 0.398438 0.662109 h 1.341796 l 3.673828,-0.01367 v -1.046875 c 0,-2.954873 2.242888,-5.223742 5.160157,-5.347656 l -1.048828,-1.048828 h -3.613282 z" /><path
   class="st0"
   d="M 42.885674,25.545818 H 21.114326 c -1.571129,0 -2.805586,-1.234458 -2.805586,-2.805586 v 0 c 0,-1.571128 1.234457,-2.805586 2.805586,-2.805586 h 21.771348 c 1.571128,0 2.805586,1.234458 2.805586,2.805586 v 0 c 0,1.515016 -1.234458,2.805586 -2.805586,2.805586 z"
   id="path625"
   style="fill:#e6e6e6;fill-opacity:1;stroke-width:1" /><path
   id="path629"
   style="fill:#e6e6e6;fill-opacity:1;stroke-width:1"
   class="st0"
   d="M 21.115234 30.314453 C 19.544107 30.314453 18.308594 31.549966 18.308594 33.121094 C 18.308594 34.69222 19.544107 35.925781 21.115234 35.925781 L 22.289062 35.925781 L 26.607422 31.607422 L 27.898438 30.314453 L 21.115234 30.314453 z M 36.101562 30.314453 L 37.392578 31.607422 L 41.193359 35.40625 L 41.712891 35.925781 L 42.884766 35.925781 C 44.455892 35.925781 45.691406 34.69222 45.691406 33.121094 C 45.691406 31.549966 44.455892 30.314453 42.884766 30.314453 L 36.101562 30.314453 z " /><path
   class="st1"
   d="m 47.3,47.3 -6.4,-6.4 -2.6,-2.6 -3.8,-3.8 -1.3,-1.3 -0.3,-0.3 c -0.2,-0.2 -0.6,-0.4 -0.9,-0.4 -0.3,0 -0.7,0.1 -0.9,0.4 l -0.3,0.3 -1.3,1.3 -12.8,12.8 c -0.8,0.8 -0.2,2.2 0.9,2.2 h 6.5 c 0.7,0 1.3,0.6 1.3,1.3 v 0.4 2.9 2.4 3.1 3.2 c 0,0.7 0.6,1.3 1.3,1.3 h 10.6 c 0.7,0 1.3,-0.6 1.3,-1.3 v -3.2 -5.4 -3.4 c 0,-0.7 0.6,-1.3 1.3,-1.3 h 6.5 c 1.1,-0.1 1.7,-1.4 0.9,-2.2 z"
   id="path181"
   style="fill:url(#SVGID_1_)" /></svg>
