<?xml version="1.0" encoding="UTF-8"?>
<!-- Generator: Adobe Illustrator 20.1.0, SVG Export Plug-In . SVG Version: 6.00 Build 0)  -->
<svg width="64px" height="64px" enable-background="new 0 0 64 64" version="1.1" viewBox="0 0 64 64" xml:space="preserve" xmlns="http://www.w3.org/2000/svg"><defs>
	

		
	<linearGradient id="SVGID_1_" x1="30" x2="30" y1="77.07" y2="17.5" gradientTransform="translate(2)" gradientUnits="userSpaceOnUse">
	<stop stop-color="#FFF23A" offset="0"/>
	<stop stop-color="#FEE62D" offset=".040105"/>
	<stop stop-color="#FED41A" offset=".1171"/>
	<stop stop-color="#FDC90F" offset=".1964"/>
	<stop stop-color="#FDC60B" offset=".2809"/>
	<stop stop-color="#F28F3F" offset=".6685"/>
	<stop stop-color="#ED693C" offset=".8876"/>
	<stop stop-color="#E83E39" offset="1"/>
</linearGradient></defs>
<style type="text/css">
	.st0{fill:#52545c;}
</style><g fill="#52545c">

<path class="st0" d="m13.531 4c-5.1156 0-9.2773 4.1629-9.2773 9.3652v1.4492 0.94336 25.215 0.47266 0.64844 0.4043c0 5.1156 4.1629 9.3633 9.3652 9.3633h0.21289c-1.7953-2.014-2.1471-5.3334-0.02539-7.4551l0.001953-0.001953h-0.27734c-1.0405 0-1.9082-0.86578-1.9082-1.9062v-0.4043-0.64844-25.688-0.94336-1.4492c0-1.0405 0.86773-1.9082 1.9082-1.9082h4.3398 27.623 1.1387 0.2793 3.4688c1.0405 0 1.9082 0.86774 1.9082 1.9082v2.3926 12.625l0.070313 12.266 0.007813 1.3418h0.005859l0.001953 0.50781c0 1.0405-0.86578 1.9062-1.9062 1.9062h-0.27734l0.001953 0.001953c1.5451 1.5451 1.887 4.0984 1.1289 5.8672-0.23662 0.55211-0.57688 1.0549-0.98242 1.502h0.041015c5.1156 6e-5 9.3652-4.1609 9.3652-9.3633v-0.9668-0.46484-23.549-2.9805-1.1738c0-5.1156-4.1617-9.2773-9.2773-9.2773h-3.8359-1.1387-18.717-8.9062-4.3398zm11.85 40.404-1.0488 1.0488c2.9173 0.12391 5.1602 2.3928 5.1602 5.3477v0.39844 0.66211h1.3418l3.6738-0.013672v-1.0469c0-2.9549 2.2429-5.2237 5.1602-5.3477l-1.0488-1.0488h-3.6133-9.625z"/><path class="st0" d="m42.886 25.546h-21.771c-1.5711 0-2.8056-1.2345-2.8056-2.8056s1.2345-2.8056 2.8056-2.8056h21.771c1.5711 0 2.8056 1.2345 2.8056 2.8056 0 1.515-1.2345 2.8056-2.8056 2.8056z"/><path class="st0" d="m21.115 30.314c-1.5711 0-2.8066 1.2355-2.8066 2.8066 0 1.5711 1.2355 2.8047 2.8066 2.8047h1.1738l4.3184-4.3184 1.291-1.293h-6.7832zm14.986 0 1.291 1.293 3.8008 3.7988 0.51953 0.51953h1.1719c1.5711 0 2.8066-1.2336 2.8066-2.8047 0-1.5711-1.2355-2.8066-2.8066-2.8066h-6.7832z"/></g><path class="st1" d="m47.3 47.3-14.4-14.4c-0.2-0.2-0.6-0.4-0.9-0.4s-0.7 0.1-0.9 0.4l-14.4 14.4c-0.8 0.8-0.2 2.2 0.9 2.2h6.5c0.7 0 1.3 0.6 1.3 1.3v12c0 0.7 0.6 1.3 1.3 1.3h10.6c0.7 0 1.3-0.6 1.3-1.3v-12c0-0.7 0.6-1.3 1.3-1.3h6.5c1.1-0.1 1.7-1.4 0.9-2.2z" fill="url(#SVGID_1_)"/></svg>
